<svg width="25" height="26" viewBox="0 0 25 26" fill="none" xmlns="http://www.w3.org/2000/svg">
<path d="M6.19776 25.4825V22.433H0.0149571C0.00886347 22.3055 0 22.2062 0 22.1075C0 16.3708 0.000923338 10.6341 0.00276989 4.89733C0.00363573 4.72775 0.031115 4.55937 0.0842026 4.39832C0.539561 3.01608 1.00711 1.63549 1.46136 0.249917C1.46698 0.211866 1.48004 0.175297 1.49979 0.142301C1.51954 0.109304 1.5456 0.0805267 1.57646 0.0576129C1.60733 0.0346992 1.64241 0.0180985 1.67969 0.00875956C1.71697 -0.000579354 1.75572 -0.00247338 1.79374 0.00318576C9.35978 0.00909992 16.9256 0.0107632 24.4913 0.0081758H24.745V0.329203C24.745 5.27343 24.7465 10.2177 24.7495 15.1619C24.7533 15.2542 24.7368 15.3463 24.7012 15.4315C24.6655 15.5168 24.6117 15.5932 24.5434 15.6554C22.3486 17.8395 20.1573 20.028 17.9695 22.2206C17.9072 22.289 17.8307 22.3428 17.7453 22.3782C17.6599 22.4135 17.5677 22.4296 17.4754 22.4252C16.1458 22.4158 14.8119 22.4252 13.4802 22.4152C13.365 22.4081 13.2497 22.4268 13.1426 22.47C13.0356 22.5132 12.9395 22.5797 12.8614 22.6647C11.9828 23.5618 11.0915 24.4462 10.1974 25.3261C10.1093 25.4185 9.99174 25.4774 9.865 25.4924C8.67508 25.5041 7.48295 25.4991 6.2947 25.498C6.26205 25.4952 6.22965 25.49 6.19776 25.4825ZM3.84341 2.30305V18.5851H9.27226V21.6712C9.35646 21.5913 9.40299 21.5486 9.44842 21.5048C10.3647 20.5922 11.2826 19.6812 12.1933 18.7631C12.2493 18.7019 12.318 18.6538 12.3946 18.6221C12.4711 18.5904 12.5537 18.5759 12.6365 18.5795C14.5347 18.5858 16.4332 18.5845 18.3318 18.5757C18.485 18.5691 18.6309 18.5086 18.7439 18.4049C19.9272 17.2405 21.0977 16.0596 22.2782 14.8908C22.3388 14.8345 22.3864 14.7656 22.4175 14.689C22.4486 14.6124 22.4625 14.5298 22.4583 14.4472C22.4572 10.4929 22.4566 6.53906 22.4566 2.58582V2.30305H3.84341ZM12.3639 6.99371V13.8756H10.0672V6.99371H12.3628H12.3639ZM18.539 13.8844H16.2843V6.99316H18.539V13.8844Z" fill="#808080"/>
</svg>
