<svg width="21" height="26" viewBox="0 0 21 26" fill="none" xmlns="http://www.w3.org/2000/svg">
<path d="M19.886 13.1728C19.7719 12.6334 19.5007 12.1442 19.1096 11.7722C18.7185 11.4003 18.2267 11.164 17.7019 11.0957C16.0276 10.9062 13.5021 10.8114 10.1255 10.8114C6.74889 10.8114 4.22803 10.9062 2.5629 11.0957C2.03829 11.1568 1.54602 11.3911 1.15778 11.7646C0.760723 12.1373 0.483806 12.6292 0.365015 13.1728C0.0853061 14.8159 -0.0336375 16.4844 0.0100212 18.1526C-0.0370706 19.8209 0.0818992 21.4898 0.365015 23.1325C0.475518 23.6776 0.750829 24.1713 1.15035 24.5406C1.5366 24.9113 2.02765 25.141 2.54963 25.1951C5.0683 25.4309 7.59699 25.53 10.1255 25.4922C12.654 25.5295 15.1827 25.4298 17.7013 25.1935C18.2212 25.1403 18.71 24.9108 19.0932 24.5401C19.49 24.1674 19.7666 23.6754 19.8849 23.1319C20.1646 21.4888 20.2836 19.8203 20.2399 18.1521C20.2872 16.484 20.1685 14.8153 19.886 13.1728ZM5.78491 14.6098H4.32407V22.7052H2.95928V14.6098H1.52657V13.2725H5.78491V14.6098ZM9.47069 22.7046H8.25554V21.9366C8.09435 22.1747 7.88718 22.375 7.64736 22.5245C7.40755 22.674 7.14041 22.7693 6.86315 22.8044C6.69313 22.8267 6.52098 22.7863 6.37644 22.6902C6.23189 22.5941 6.12402 22.4483 6.07145 22.2779C5.9857 21.9394 5.94885 21.5893 5.96214 21.2394V15.6766H7.17729V20.8554C7.17172 21.0217 7.17633 21.1883 7.19109 21.3541C7.19006 21.3937 7.19677 21.433 7.21082 21.4698C7.22486 21.5066 7.24594 21.54 7.27276 21.5679C7.29958 21.5959 7.33159 21.6178 7.36681 21.6324C7.40204 21.647 7.43975 21.654 7.47763 21.6528C7.64259 21.6225 7.79863 21.5529 7.93357 21.4492C8.0685 21.3456 8.17869 21.2108 8.25554 21.0554V15.6799H9.47069V22.7052V22.7046ZM14.1116 20.5988C14.1332 21.0768 14.0919 21.5556 13.989 22.0219C13.9427 22.2512 13.8197 22.4558 13.642 22.5991C13.4644 22.7424 13.2437 22.815 13.0196 22.8038C12.7653 22.7815 12.519 22.6997 12.2992 22.5643C12.0793 22.4289 11.8915 22.2435 11.7498 22.0219V22.7046H10.5357V13.2725H11.7503V16.3599C11.8906 16.1379 12.0783 15.953 12.2986 15.8198C12.519 15.6865 12.766 15.6084 13.0201 15.5918C13.2462 15.5819 13.4682 15.6568 13.646 15.8029C13.8238 15.9491 13.9457 16.1569 13.9896 16.3887C14.0933 16.85 14.1346 17.3242 14.1121 17.7974V20.5999L14.1116 20.5988ZM18.7281 19.435H16.2808V20.6708C16.2808 21.3251 16.4901 21.6523 16.9086 21.6523C17.0459 21.6591 17.1802 21.6091 17.2824 21.5131C17.3847 21.4171 17.4465 21.2829 17.4546 21.1396C17.4809 20.8512 17.4901 20.5614 17.4822 20.2718H18.7244V20.4569C18.7327 20.7323 18.7237 21.0079 18.6973 21.2821C18.6629 21.5586 18.5646 21.8222 18.4108 22.0502C18.2484 22.2982 18.0271 22.4981 17.7687 22.6303C17.5103 22.7625 17.2234 22.8225 16.9362 22.8044C16.6526 22.8171 16.3703 22.7577 16.1136 22.6314C15.8568 22.505 15.6332 22.3155 15.4621 22.079C15.1613 21.5887 15.0223 21.0091 15.0662 20.4286V17.9675C15.0231 17.3891 15.1569 16.8112 15.4483 16.3172C15.6235 16.0907 15.845 15.9079 16.0965 15.7824C16.3481 15.6569 16.6234 15.5917 16.9022 15.5917C17.181 15.5917 17.4563 15.6569 17.7079 15.7824C17.9595 15.9079 18.181 16.0907 18.3561 16.3172C18.6384 16.8147 18.7671 17.3909 18.7249 17.9675V19.4333L18.7281 19.435ZM12.3642 16.7439C12.247 16.7505 12.1322 16.7816 12.0266 16.8354C11.9211 16.8892 11.8269 16.9646 11.7498 17.057V21.3392C11.8269 21.4316 11.921 21.507 12.0266 21.5608C12.1321 21.6146 12.247 21.6457 12.3642 21.6523C12.718 21.6523 12.8949 21.3345 12.8949 20.6991V17.6971C12.8963 17.0616 12.7194 16.7439 12.3642 16.7439ZM16.8964 16.7439C16.4867 16.7439 16.2821 17.0663 16.2824 17.711V18.3654H17.5108V17.7115C17.5108 17.0664 17.306 16.7439 16.8964 16.7439ZM4.9932 5.67533V9.53185H6.35799V5.67533L8.00985 0H6.61747L5.68939 3.7407L4.72046 0H3.27342C3.52812 0.796907 3.82386 1.68359 4.16064 2.66005C4.50067 3.64516 4.77879 4.65239 4.9932 5.67533ZM9.83895 9.63049C10.1189 9.64523 10.398 9.58658 10.6508 9.45987C10.9035 9.33317 11.1219 9.14245 11.286 8.90508C11.5794 8.40151 11.7131 7.81406 11.668 7.22647V4.73655C11.7117 4.15417 11.578 3.57228 11.286 3.07402C11.1221 2.83624 10.9038 2.64509 10.6511 2.51799C10.3983 2.39089 10.1191 2.3319 9.83895 2.34639C9.56144 2.33497 9.28551 2.39519 9.03561 2.52172C8.78571 2.64825 8.56953 2.83719 8.40624 3.07181C8.11427 3.57007 7.98055 4.15196 8.02418 4.73434V7.22426C7.98167 7.81164 8.11519 8.39828 8.40624 8.90286C8.5693 9.13788 8.78537 9.32725 9.03529 9.45417C9.2852 9.5811 9.56125 9.64167 9.83895 9.63049ZM9.25207 4.47997C9.25207 3.82567 9.44769 3.49852 9.83895 3.49852C10.2302 3.49852 10.4258 3.82567 10.4258 4.47997V7.46754C10.4258 8.13255 10.2302 8.46506 9.83895 8.46506C9.44769 8.46506 9.25207 8.13255 9.25207 7.46754V4.47997ZM13.5932 9.63049C13.8746 9.59803 14.146 9.50238 14.3887 9.3501C14.6314 9.19781 14.8398 8.9925 14.9994 8.74824V9.53185H16.2416V2.43173H14.9988V7.85214C14.9233 8.00991 14.8137 8.14714 14.6785 8.25295C14.5434 8.35876 14.3866 8.43024 14.2204 8.46173C14.1816 8.46202 14.1431 8.454 14.1073 8.43819C14.0715 8.42237 14.0392 8.39909 14.0124 8.36976C13.9856 8.34044 13.9648 8.3057 13.9513 8.26767C13.9377 8.22964 13.9318 8.18913 13.9338 8.14862C13.9185 7.98289 13.9139 7.81625 13.9201 7.64986V2.43173H12.6784V8.03557C12.6642 8.39485 12.7011 8.75434 12.7877 9.10236C12.8443 9.27293 12.9549 9.41823 13.1012 9.51426C13.2476 9.61029 13.421 9.65129 13.5927 9.63049H13.5932Z" fill="#808080"/>
</svg>
